<?xml version="1.0" encoding="utf-8"?>
<!-- Generator: Adobe Illustrator 27.6.1, SVG Export Plug-In . SVG Version: 6.00 Build 0)  -->
<svg version="1.1" id="Camada_1" xmlns="http://www.w3.org/2000/svg" xmlns:xlink="http://www.w3.org/1999/xlink" x="0px" y="0px"
	 viewBox="0 0 795 270.2" style="enable-background:new 0 0 795 270.2;" xml:space="preserve">
<style type="text/css">
	.st0{fill:#FFCC02;}
	.st1{fill:#FFFFFF;}
	.st2{fill:#0099D6;}
	.st3{fill:#E42521;}
	.st4{fill:#099839;}
</style>
<path class="st0" d="M674.25,211.18c15.03,0,27.21,12.19,27.21,27.22c0,15.03-12.18,27.21-27.21,27.21
	c-15.04,0-27.22-12.18-27.22-27.21C647.03,223.37,659.21,211.18,674.25,211.18"/>
<path class="st1" d="M596.22,259.39h44.33L542.56,50.22h-0.77l-97.21,209.17h43.55c24.1-51.31,27.21-58.32,54.43-117.41
	C569.78,201.86,571.33,205.74,596.22,259.39"/>
<path class="st1" d="M351.66,55.66h-59.87v38.88l41.21,23.33V96.09h17.89c40.43,0,65.32,23.33,65.32,61.44
	c0,38.1-24.88,61.43-64.54,61.43h-18.67v-21.78l-41.21,24.11v38.1h59.87c65.32,0,105.76-38.1,105.76-101.09
	C457.41,94.54,416.97,55.66,351.66,55.66"/>
<rect x="228.52" y="55.66" class="st1" width="40.44" height="203.73"/>
<rect x="228.52" y="1.77" class="st2" width="40.44" height="39.78"/>
<polygon class="st1" points="204.52,50.22 106.54,185.53 9.33,50.22 7,50.22 7,259.39 48.21,259.39 48.21,170.75 106.54,256.28 
	107.31,256.28 206.85,113.98 206.85,50.22 "/>
<path class="st1" d="M714.67,264.06c42.77-0.78,72.33-24.11,72.33-60.66c0-31.89-21-48.98-55.22-65.32
	c-23.32-10.88-38.88-14.77-38.88-27.21c0-10.1,11.67-19.44,27.21-19.44c10.89,0,23.33,4.66,28.77,17.11l30.33-21
	c-9.34-24.88-31.88-36.55-59.88-36.55c-37.33,0-67.65,23.33-67.65,59.1c0,32.67,25.66,45.1,48.21,56.77
	c21.77,10.11,45.88,21.77,45.88,37.33c0,10.1-12.45,17.89-31.12,18.66V264.06z"/>
<polygon class="st3" points="542.56,195.63 557.33,227.52 572.11,259.39 542.56,259.39 512.23,259.39 527.78,227.52 "/>
<polygon class="st4" points="353.99,157.53 322.88,175.41 291.79,193.3 291.79,157.53 291.79,121.76 322.88,139.65 "/>
<path class="st0" d="M186.63,205.74c15.03,0,27.22,12.19,27.22,27.22c0,15.03-12.19,27.21-27.22,27.21
	c-15.03,0-27.21-12.18-27.21-27.21C159.41,217.93,171.6,205.74,186.63,205.74"/>
</svg>
